# xmcd
#
# Track frame offsets: 
#        150
#        15146
#        29845
#        44800
#        58745
#        73414
#        89804
#        116379
#        130935
#        156431
#        171501
#        188319
#        218365
#        243438
#        261690
#        277869
#        292897
#
# Disc length: 4385 seconds
#
# Revision: 0
# Processed by: cddbd v1.5.2PL0 Copyright (c) Steve Scherf et al.
# Submitted via: ExactAudioCopy v1.0b3
#
DISCID=02111f11
DTITLE=Various Artist - Trance The Vocal Session Vol. 06 - CD 2
DYEAR=1900
DGENRE=
TTITLE0=Mario Lopez - Sound Of The City (Nature 2.4) (Bad Boyz DJ Team
TTITLE0=Radio Edit)
TTITLE1=Oceanlab - Satellite (Radio Edit)
TTITLE2=Mysterio - Fading Like A Flower (Video Edit)
TTITLE3=Narcotic Thrust - I Like It (Radio Edit)
TTITLE4=Benassi Bros. Feat. Dhany - Hit My Heart (Radio Edit)
TTITLE5=Gigi D'Agostino and Pandolfi - Gigi's Goodnight (Radio Notte Mix
TTITLE5=)
TTITLE6=T'Pau - China In Your Hand 2004 (Kosmonova Remix)
TTITLE7=Spoot - Take Control 2004 (Radio Mix)
TTITLE8=Cappella - Angel (Angel's Anthem Mix)
TTITLE9=Public Flavor - F U Right Back (Radio Edit)
TTITLE10=AMB Project - Right Here Waiting (Radio Version)
TTITLE11=D.I.Y.S. - Play With Me (Club Mix)
TTITLE12=T90 - Can't Stop To Follow (Extended)
TTITLE13=Zubcell - Reality (Original Radio Cut)
TTITLE14=Massenburg Feat. Nachtschwester - Music From... (Let The Mass
TTITLE14=es Groove)
TTITLE15=Magic Box - This Is Better (Radio Remix)
TTITLE16=Club Attack - Break The Silence (DJ Sequenza Remix)
EXTD=
EXTT0=
EXTT1=
EXTT2=
EXTT3=
EXTT4=
EXTT5=
EXTT6=
EXTT7=
EXTT8=
EXTT9=
EXTT10=
EXTT11=
EXTT12=
EXTT13=
EXTT14=
EXTT15=
EXTT16=
PLAYORDER=
